PathFileType  4	(X/Y/Z) C:\Users\antoi\Documents\MyRepositories\mobilecap\ResultsAnalysis
DataRate	CameraRate	NumFrames	NumMarkers	Units	OrigDataRate	OrigDataStartFrame	OrigNumFrames
100.0	100.0	4	51	mm	100.0	17	134
Frame#	Time	r_knee			r_shank_antsup			r_ankle			r_calc			r_5meta			r_toe			L_knee			L_shank_antsup			L_ankle			L_calc			L_5meta			L_toe			r_sh2			r_sh3			r_sh4			L_sh2			L_sh3			r_thigh1			r_thigh2			r_thigh3			r_thigh4			r_thigh5			L_thigh1			L_thigh2			L_thigh3			L_thigh4			r.ASIS			r.PSIS			L.ASIS			L.PSIS			C7			R_Shoulder			L_Shoulder			R_Sternum			L_Sternum			R_humerus			R_elbow_med			R_elbow_lat			R_forearm			R_wrist_radius			R_wrist_ulna			L_humerus			L_elbow_med			L_elbow_lat			L_forearm			L_wrist_radius			L_wrist_ulna			R_HJC			L_HJC			R_HJC_reg			L_HJC_reg			
		X1	Y1	Z1	X2	Y2	Z2	X3	Y3	Z3	X4	Y4	Z4	X5	Y5	Z5	X6	Y6	Z6	X7	Y7	Z7	X8	Y8	Z8	X9	Y9	Z9	X10	Y10	Z10	X11	Y11	Z11	X12	Y12	Z12	X13	Y13	Z13	X14	Y14	Z14	X15	Y15	Z15	X16	Y16	Z16	X17	Y17	Z17	X18	Y18	Z18	X19	Y19	Z19	X20	Y20	Z20	X21	Y21	Z21	X22	Y22	Z22	X23	Y23	Z23	X24	Y24	Z24	X25	Y25	Z25	X26	Y26	Z26	X27	Y27	Z27	X28	Y28	Z28	X29	Y29	Z29	X30	Y30	Z30	X31	Y31	Z31	X32	Y32	Z32	X33	Y33	Z33	X34	Y34	Z34	X35	Y35	Z35	X36	Y36	Z36	X37	Y37	Z37	X38	Y38	Z38	X39	Y39	Z39	X40	Y40	Z40	X41	Y41	Z41	X42	Y42	Z42	X43	Y43	Z43	X44	Y44	Z44	X45	Y45	Z45	X46	Y46	Z46	X47	Y47	Z47	X48	Y48	Z48	X49	Y49	Z49	X50	Y50	Z50	X51	Y51	Z51	

17	0.16000000	231.61662	496.48916	-42.09922	267.90236	427.22732	-71.61713	186.24999	94.61170	-69.12428	110.95794	68.08246	-90.94066	293.43000	44.76669	-56.97780	329.44845	70.59385	-122.51802	120.23996	463.96286	-321.98517	84.83965	374.17876	-327.98043	-203.20989	251.27055	-301.46948	-257.42780	303.88391	-256.96162	-228.68461	123.03984	-316.86216	-180.00583	102.44036	-266.77356	247.95484	313.70936	-48.69541	200.56565	439.09143	-22.35486	180.25508	328.38653	-20.36166	43.32639	453.01525	-328.38696	-59.21454	386.84884	-331.44715	220.42719	819.79476	-1.34958	245.82836	708.62120	-15.90953	200.83444	674.86627	23.57926	120.16326	794.10305	40.26996	143.18415	678.27670	24.07743	113.51237	725.43579	-349.50780	142.42983	591.67000	-338.14238	22.36577	707.09003	-281.51791	52.56884	571.62967	-280.91690	194.89978	970.03770	-39.89418	-5.84597	993.06377	-92.23958	167.77840	927.06343	-285.85837	-25.78433	982.19126	-191.21326	-27.27853	1396.71445	-179.54343	74.01784	1367.36816	0.34422	58.92472	1365.27317	-357.38267	113.56421	1370.37004	-156.64599	118.29147	1370.74567	-198.18001	79.55404	1237.93426	70.25648	-17.35014	1038.99764	59.00976	15.46934	1057.02029	120.75180	63.41688	923.59341	135.75196	66.74744	790.45149	155.45309	55.44270	795.08082	191.16696	105.15384	1255.32172	-412.77117	74.66885	1015.65598	-391.03452	125.50927	1045.09480	-443.59532	199.80765	962.88662	-395.57644	260.98894	818.13496	-372.39967	269.07199	822.11193	-406.01754	119.91662	885.88057	-40.46156	91.91976	856.38788	-242.89556	129.65692	883.74776	-52.81893	97.10964	865.99811	-214.38682	
18	0.17000000	236.27940	496.01756	-41.18558	271.77234	426.21206	-70.72968	186.40812	94.67795	-69.18476	110.88034	67.99903	-91.02228	293.44533	44.72372	-56.89046	329.54347	70.45804	-122.44534	144.90668	467.19587	-321.01626	110.70971	377.24787	-326.68164	-177.18679	254.86948	-300.55161	-233.34864	305.28880	-255.70414	-198.66976	126.53783	-318.42005	-150.43070	106.38633	-267.87873	250.57811	312.94965	-48.13438	204.61632	438.80004	-21.49199	183.06088	328.33517	-19.74386	69.16374	456.10447	-327.92815	-33.26511	389.77081	-331.14799	229.81455	819.55861	-0.04693	251.89954	707.33455	-14.57323	207.87699	674.82723	24.66216	128.81156	795.24934	41.18109	149.05219	679.64747	24.89653	129.52593	727.91701	-348.22125	162.68451	595.05312	-337.23196	39.11092	706.62755	-280.05119	73.68709	572.42426	-279.47344	205.83366	971.23619	-38.66467	5.25122	994.56351	-91.51334	179.48463	928.86577	-284.95265	-14.38875	983.74991	-190.57986	-15.95599	1398.45467	-178.86068	85.49293	1369.04880	0.93507	70.02047	1366.82131	-356.80676	124.90442	1372.06278	-156.11386	129.56750	1372.40449	-197.66239	92.23862	1239.71646	70.83377	-2.58636	1039.57027	60.72177	30.70478	1058.10327	122.09863	80.74039	925.38478	136.43526	86.37440	792.31500	155.87662	75.44147	796.62826	191.66516	115.76833	1256.69539	-412.33463	83.80363	1017.25408	-390.80652	134.87384	1046.46355	-443.36334	208.56661	963.46393	-396.03513	268.63602	818.06633	-373.77707	276.50943	822.08997	-407.45888	130.86038	887.12354	-39.67570	103.42532	858.11168	-242.25632	140.53405	885.24273	-51.89133	108.46589	867.58537	-213.65366	
19	0.18000000	240.43771	495.57464	-40.28010	275.21236	425.22636	-69.69128	186.53477	94.76420	-69.24787	110.76707	67.79251	-91.14806	293.46048	44.68839	-56.80500	329.63903	70.33728	-122.36159	169.42223	470.84152	-319.81453	136.53521	380.61145	-325.26839	-150.57990	257.15051	-299.64629	-208.71466	305.28574	-254.31716	-167.97539	128.82883	-319.86934	-119.79639	109.30240	-269.09677	252.79523	312.26306	-47.43982	208.10718	438.55432	-20.75313	185.32732	328.33618	-19.28065	94.56201	459.27629	-327.29177	-7.38913	392.22344	-330.63270	238.97636	819.25765	1.20267	258.54630	706.40013	-13.24419	214.62117	674.82426	25.66801	137.06157	796.37885	42.00478	155.17771	680.85393	25.54833	145.67595	730.72772	-346.98325	183.00716	598.90493	-336.15081	55.80907	706.58505	-278.99732	94.64540	573.61512	-278.41065	216.58951	972.57619	-37.39689	16.22163	996.10264	-90.88788	191.23575	931.00669	-283.99739	-3.04690	985.54469	-190.05220	-4.71749	1400.34640	-178.23708	96.85132	1370.88921	1.44380	80.94551	1368.51364	-356.28938	136.14840	1373.84021	-155.67056	140.73574	1374.17729	-197.29570	104.78510	1241.66479	71.34716	12.28913	1040.24640	62.25213	45.94103	1059.28560	123.32239	98.25526	927.37169	136.91304	106.26852	794.39690	156.01575	95.73042	798.41196	191.83047	126.17695	1258.22407	-411.98939	92.63902	1019.05483	-390.57018	143.90438	1047.95732	-443.20639	217.04007	964.16462	-396.63694	276.00044	818.15555	-375.31896	283.57638	822.19695	-409.08273	141.66399	888.46508	-38.96869	114.97651	860.11520	-241.74196	151.34995	886.70627	-51.11622	119.87933	869.46208	-213.08535	
20	0.19000000	244.11018	495.16201	-39.39925	278.28750	424.30650	-68.56918	186.63311	94.86402	-69.32074	110.62567	67.48560	-91.30700	293.48047	44.66064	-56.72201	329.72801	70.22965	-122.27637	193.75026	474.80449	-318.42221	162.21762	384.21167	-323.78974	-123.46812	258.11784	-298.77174	-183.55147	303.86041	-252.84509	-136.71854	129.96072	-321.18647	-88.26507	111.22563	-270.38688	254.65376	311.65415	-46.65666	211.10959	438.35955	-20.13103	187.13896	328.39023	-18.95504	119.42768	462.46491	-326.45174	18.31816	394.17239	-329.87467	247.91034	818.86853	2.43221	265.51499	705.68123	-11.93989	221.05300	674.83967	26.56019	144.99890	797.49665	42.73094	161.51898	681.89945	26.02170	162.03215	733.82579	-345.83249	203.42313	603.15970	-334.94214	72.49404	706.87127	-278.47042	115.45362	575.13078	-277.79395	227.20458	973.99784	-36.05429	27.09250	997.64995	-90.37788	203.04421	933.46637	-282.94329	8.25519	987.51275	-189.64707	6.44908	1402.34450	-177.66322	108.10924	1372.87924	1.87958	91.70890	1370.33807	-355.80591	147.31848	1375.68219	-155.30267	151.82010	1376.04714	-197.05735	117.19433	1243.77529	71.82028	27.27959	1041.04081	63.57428	61.16512	1060.57479	124.41380	115.93478	929.55960	137.18406	126.42207	796.71615	155.86071	116.25344	800.45413	191.62496	136.40145	1259.90388	-411.71200	101.22243	1021.04060	-390.33754	152.62266	1049.56954	-443.12884	225.24404	964.98273	-397.35413	283.06364	818.38595	-376.98986	290.30322	822.43378	-410.83766	152.33979	889.85686	-38.32920	126.60838	862.36112	-241.34125	162.12360	888.15529	-50.42720	131.35147	871.59551	-212.59675	
